<svg width="30" height="20" viewBox="0 0 30 20" fill="none" xmlns="http://www.w3.org/2000/svg">
<path d="M21.2596 15.2572V14.8429H26.0196V15.2572H21.2596ZM21.1196 13.8429C20.6531 13.8429 20.2596 14.2165 20.2596 14.6964V15.4036C20.2596 15.8835 20.6531 16.2572 21.1196 16.2572H26.1596C26.6261 16.2572 27.0196 15.8835 27.0196 15.4036V14.6964C27.0196 14.2165 26.6261 13.8429 26.1596 13.8429H21.1196ZM3.97961 15.2572V14.8429H11.6196V15.2572H3.97961ZM3.83961 13.8429C3.3731 13.8429 2.97961 14.2165 2.97961 14.6964V15.4036C2.97961 15.8835 3.3731 16.2572 3.83961 16.2572H11.7596C12.2261 16.2572 12.6196 15.8835 12.6196 15.4036V14.6964C12.6196 14.2165 12.2261 13.8429 11.7596 13.8429H3.83961ZM2.03961 19.5C1.51207 19.5 1.09961 19.0821 1.09961 18.5857V4.94287H28.8996V18.5857C28.8996 19.0821 28.4871 19.5 27.9596 19.5H2.03961ZM1.31961 0.700012H28.6796C28.8098 0.700012 28.8996 0.801057 28.8996 0.907155V2.52858H1.09961V0.907155C1.09961 0.801056 1.18942 0.700012 1.31961 0.700012Z" stroke="white"/>
</svg>
